<?xml version="1.0" standalone="no"?>
<!DOCTYPE svg PUBLIC "-//W3C//DTD SVG 20010904//EN"
 "http://www.w3.org/TR/2001/REC-SVG-20010904/DTD/svg10.dtd">
<svg version="1.0" xmlns="http://www.w3.org/2000/svg"
 width="900.000000pt" height="564.000000pt" viewBox="0 0 900.000000 564.000000"
 preserveAspectRatio="xMidYMid meet">
<metadata>
Created by potrace 1.10, written by Peter Selinger 2001-2011
</metadata>
<g transform="translate(0.000000,564.000000) scale(0.100000,-0.100000)"
fill="#000000" stroke="none">
<path d="M6095 5128 c-16 -6 -39 -17 -50 -24 -15 -11 -66 -14 -210 -14 -187 0
-192 -1 -213 -23 -28 -30 -28 -71 0 -97 19 -17 35 -20 128 -20 183 0 231 -14
203 -59 -6 -9 -14 -40 -18 -69 l-7 -51 46 -22 c54 -27 55 -31 52 -199 -2 -87
1 -135 11 -159 21 -52 17 -80 -13 -91 -41 -16 -2656 -13 -2677 3 -14 11 -87
214 -87 243 0 6 -7 17 -15 24 -8 7 -15 22 -15 34 0 36 275 168 400 191 118 22
133 40 79 91 l-30 29 -332 -3 c-193 -2 -361 1 -402 7 -38 5 -145 13 -236 17
l-166 7 -16 -24 c-28 -39 -21 -57 33 -84 42 -21 50 -30 50 -53 0 -15 -7 -38
-16 -50 -18 -26 -12 -33 47 -70 71 -43 199 -18 199 39 0 30 19 23 71 -26 26
-24 60 -47 76 -51 15 -4 38 -17 49 -28 12 -12 33 -29 48 -39 15 -10 26 -27 26
-40 0 -20 12 -64 45 -158 7 -20 10 -42 6 -48 -4 -6 -66 -11 -166 -13 l-160 -3
0 -110 0 -110 150 -5 c147 -5 150 -5 153 -28 2 -15 -14 -46 -51 -95 -29 -40
-99 -133 -155 -207 -55 -74 -114 -150 -129 -168 l-28 -34 -97 50 c-280 146
-528 207 -848 207 -168 0 -232 -7 -395 -42 -290 -62 -567 -202 -807 -409 -53
-46 -100 -84 -104 -84 -14 0 -79 -73 -104 -116 -14 -24 -53 -84 -88 -134 -34
-50 -85 -136 -113 -193 -28 -56 -55 -110 -60 -119 -19 -37 -11 -46 33 -41 47
7 46 16 5 -102 -69 -196 -89 -322 -90 -559 0 -203 7 -267 50 -431 111 -427
368 -779 753 -1031 44 -28 214 -115 275 -139 84 -34 327 -107 413 -124 30 -6
134 -11 232 -11 177 0 266 11 365 44 22 7 67 21 100 31 133 38 285 103 409
174 280 161 548 454 686 750 23 51 25 53 60 48 19 -2 71 -14 115 -27 44 -12
96 -26 115 -31 38 -8 152 -39 240 -64 152 -43 273 -43 368 1 29 13 58 24 65
24 7 0 53 -42 104 -93 l92 -92 -8 -41 c-14 -71 -5 -80 91 -87 45 -3 120 -3
165 0 l81 6 4 46 c3 25 3 48 0 51 -2 3 -31 7 -65 10 l-62 5 -147 151 -146 151
25 54 c29 59 52 147 53 196 0 41 -18 120 -36 156 -8 16 -14 34 -14 42 0 7 -7
18 -15 25 -8 7 -15 19 -15 27 0 8 59 85 132 171 73 86 177 211 233 277 55 66
115 136 133 156 18 20 45 52 60 71 26 35 166 202 287 343 33 39 78 92 100 119
22 27 47 56 55 66 8 10 58 68 110 130 52 62 149 177 215 255 66 78 138 164
160 190 74 91 115 136 179 201 51 52 70 64 95 64 31 0 31 0 25 -40 -4 -27 -3
-40 5 -40 6 0 11 7 11 15 0 8 5 15 11 15 8 0 10 -18 6 -59 -3 -38 0 -74 9 -98
22 -63 18 -86 -18 -108 -204 -117 -351 -243 -508 -430 -60 -73 -160 -216 -160
-230 0 -3 -11 -23 -24 -44 -30 -47 -100 -212 -131 -305 -53 -162 -85 -350 -85
-494 0 -55 -5 -112 -11 -125 -11 -25 -3 -96 22 -187 18 -66 29 -77 50 -48 16
20 20 21 32 8 8 -8 22 -46 31 -85 31 -129 34 -140 54 -190 177 -456 458 -768
872 -968 100 -49 178 -78 380 -141 124 -39 216 -48 423 -43 186 4 248 12 302
37 11 5 38 14 60 19 88 22 149 41 159 51 5 5 19 10 29 10 19 0 255 113 309
148 166 107 336 259 447 400 249 316 386 736 367 1122 -13 277 -60 469 -166
684 -109 222 -213 366 -375 516 -68 64 -215 180 -245 193 -8 4 -28 16 -45 27
-124 80 -454 210 -534 210 -49 0 -83 46 -49 67 22 13 -49 22 -222 29 -232 9
-420 -13 -610 -71 -106 -32 -105 -32 -122 17 -8 23 -25 77 -38 118 -13 41 -27
86 -31 100 -33 101 -18 130 67 130 l55 0 -3 108 -3 107 -107 10 c-58 6 -109
13 -113 16 -7 8 -50 131 -60 174 -3 17 -19 55 -35 87 l-29 56 22 24 c12 14 38
32 57 42 19 9 42 21 50 26 57 36 122 69 148 75 18 3 34 11 37 16 4 5 13 9 22
9 15 0 58 17 121 47 32 16 44 42 20 44 -43 3 -107 -4 -128 -15 -28 -14 -97
-10 -117 6 -15 12 -17 54 -3 63 19 12 10 43 -21 69 -25 22 -41 26 -89 26 -68
0 -110 13 -110 34 0 19 -50 46 -82 45 -13 0 -36 -5 -53 -11z m211 -338 l28
-11 -21 -20 c-22 -23 -88 -41 -115 -33 -37 11 -14 48 39 64 38 11 38 11 69 0z
m-311 -740 c23 -25 18 -37 -59 -144 -52 -73 -105 -137 -421 -511 -66 -78 -147
-174 -180 -215 -33 -40 -103 -123 -155 -185 -52 -61 -113 -134 -135 -160 -22
-27 -69 -83 -105 -125 -36 -42 -130 -154 -210 -250 -80 -95 -209 -248 -287
-340 l-142 -167 -93 19 c-51 11 -102 22 -114 24 -22 4 -41 57 -204 574 -37
118 -80 254 -120 380 -14 47 -41 132 -59 190 -19 58 -46 143 -60 190 -15 47
-36 112 -45 145 -10 33 -24 76 -31 95 -11 32 -56 175 -92 295 -9 28 -22 68
-29 90 -19 55 -18 92 4 104 11 7 437 10 1268 11 1239 0 1251 0 1269 -20z
m-2722 -102 c8 -24 22 -65 31 -93 8 -27 28 -90 45 -140 16 -49 50 -157 76
-240 26 -82 59 -188 74 -235 15 -47 35 -110 44 -140 9 -30 29 -95 45 -145 16
-49 43 -137 61 -195 18 -58 39 -121 46 -140 7 -19 20 -60 28 -90 20 -68 74
-242 92 -295 41 -126 57 -186 51 -200 -11 -29 -94 -9 -138 33 -35 33 -37 40
-40 101 l-3 66 -32 3 c-22 2 -33 9 -33 19 0 8 -7 47 -16 87 -83 383 -244 677
-520 950 -57 56 -104 105 -104 108 0 3 14 22 30 43 38 48 38 75 0 108 -32 29
-68 35 -88 15 -9 -9 -12 -9 -12 0 0 7 5 12 10 12 6 0 10 5 10 10 0 13 266 369
288 388 26 21 39 14 55 -30z m-1146 -558 c42 -11 82 -25 87 -30 6 -6 27 -10
47 -10 21 0 40 -4 44 -9 3 -5 19 -12 35 -16 16 -4 49 -17 72 -31 24 -13 54
-29 68 -36 14 -6 33 -18 42 -26 16 -14 15 -17 -15 -56 -17 -22 -37 -45 -43
-51 -18 -16 -74 -92 -74 -100 0 -6 -55 -81 -70 -95 -3 -3 -17 -23 -32 -45 -15
-22 -39 -53 -54 -70 -14 -16 -42 -54 -61 -82 -19 -29 -38 -53 -41 -53 -4 0
-23 -24 -42 -53 -19 -28 -37 -54 -40 -57 -3 -3 -38 -48 -78 -101 -89 -118
-107 -136 -125 -120 -19 15 -28 3 -14 -20 9 -15 7 -24 -9 -46 -22 -30 -67 -44
-139 -43 -39 0 -41 -2 -82 -70 -58 -97 -78 -247 -37 -281 8 -6 14 -17 14 -25
0 -13 59 -74 73 -74 4 0 16 -9 27 -20 11 -11 30 -20 43 -20 13 0 28 -5 34 -11
6 -6 34 -12 63 -14 57 -4 100 -26 100 -52 0 -14 2 -14 20 2 17 15 20 16 25 2
5 -11 16 -14 46 -10 39 6 67 -1 229 -48 97 -28 295 -78 520 -130 282 -67 350
-88 350 -110 0 -9 -7 -19 -15 -23 -8 -3 -15 -16 -15 -30 0 -27 -91 -167 -127
-196 -13 -10 -23 -24 -23 -32 0 -25 -174 -191 -285 -273 -87 -64 -312 -175
-360 -178 -18 -2 -39 -7 -46 -13 -23 -17 -146 -47 -207 -49 -32 -1 -64 -5 -72
-8 -8 -3 -34 -8 -58 -11 -39 -6 -43 -4 -53 21 -6 16 -8 43 -5 61 5 36 -1 62
-15 62 -5 0 -9 -26 -9 -57 0 -32 -4 -63 -8 -69 -12 -18 -50 -26 -72 -14 -11 6
-55 12 -98 14 -43 1 -110 13 -152 25 -41 13 -104 32 -140 43 -77 23 -152 58
-163 75 -4 7 -17 13 -28 13 -23 0 -148 77 -194 120 -16 15 -38 32 -47 37 -28
14 -168 155 -168 168 0 6 -13 21 -29 33 -31 22 -131 168 -131 190 0 7 -11 28
-24 45 -13 18 -36 61 -50 97 -15 36 -32 75 -38 87 -6 11 -7 26 -3 33 4 6 0 19
-8 28 -18 19 -48 140 -56 222 -2 30 -4 136 -3 235 1 172 14 273 43 327 5 9 12
36 15 60 4 24 10 48 14 53 4 6 11 21 15 35 12 44 48 115 62 123 7 4 13 17 13
28 0 18 89 163 130 211 21 25 177 183 225 228 44 41 180 130 198 130 9 0 27
10 41 23 13 12 50 33 83 45 32 13 71 30 86 38 16 8 33 12 37 9 5 -3 28 3 52
14 56 25 192 54 216 47 11 -4 30 -2 43 4 40 17 354 3 446 -20z m5238 18 c75
-7 198 -37 216 -54 9 -8 23 -12 30 -9 18 7 196 -69 225 -96 11 -10 26 -19 34
-19 21 0 167 -99 195 -132 13 -15 28 -28 33 -28 18 0 246 -254 262 -293 3 -7
17 -31 33 -54 15 -24 27 -51 27 -62 0 -11 6 -24 14 -28 19 -11 70 -124 86
-193 7 -30 19 -73 27 -95 19 -53 43 -199 36 -225 -3 -11 0 -27 7 -35 10 -12
11 -43 7 -121 -4 -58 -10 -111 -13 -116 -4 -6 -9 -40 -10 -75 -2 -35 -10 -84
-19 -109 -8 -25 -15 -51 -15 -58 0 -8 -7 -19 -15 -26 -8 -7 -14 -22 -13 -35 6
-70 -200 -440 -258 -462 -8 -3 -14 -11 -14 -18 0 -14 -159 -175 -173 -175 -5
0 -29 -18 -53 -39 -56 -49 -159 -111 -185 -111 -10 0 -19 -5 -19 -11 0 -18
-169 -89 -225 -94 -5 -1 -41 -11 -80 -24 -38 -12 -103 -24 -145 -27 -41 -3
-92 -10 -114 -17 -34 -10 -40 -9 -52 8 -8 11 -14 43 -14 78 0 43 -3 57 -12 54
-8 -2 -12 -19 -11 -43 5 -88 -14 -107 -92 -93 -27 6 -73 11 -101 13 -65 4
-192 34 -221 52 -12 8 -34 14 -48 14 -14 0 -33 4 -43 9 -9 5 -46 24 -82 41
-157 75 -303 170 -317 206 -3 8 -12 14 -20 14 -18 0 -173 158 -173 176 0 7 -8
19 -19 26 -25 18 -130 175 -138 207 -3 15 -14 36 -24 49 -23 30 -71 156 -73
191 -1 16 -6 34 -12 42 -28 37 -48 181 -47 352 0 253 17 389 58 450 9 14 14
31 10 37 -7 11 2 34 42 112 7 14 13 32 13 40 0 8 13 29 30 48 16 19 29 43 30
52 0 23 121 197 142 203 9 4 20 14 23 24 8 27 227 231 258 240 6 2 19 9 27 16
8 7 30 15 48 18 l32 7 -7 -57 c-4 -41 -3 -54 5 -49 7 4 12 14 12 22 0 25 19
15 26 -13 3 -16 11 -41 19 -58 15 -35 33 -86 47 -135 5 -19 14 -39 19 -44 5
-6 9 -19 9 -30 0 -12 15 -52 34 -91 62 -127 116 -244 116 -251 0 -5 20 -38 45
-75 25 -37 45 -76 45 -87 0 -21 -59 -72 -83 -72 -8 0 -24 -9 -37 -20 -24 -21
-21 -50 5 -50 22 0 19 -37 -4 -50 -17 -9 -25 -4 -52 30 -25 31 -35 37 -46 29
-15 -13 -18 -45 -4 -53 4 -3 11 -19 14 -35 6 -27 10 -30 53 -33 57 -4 78 -26
51 -56 -17 -19 -23 -51 -9 -53 4 0 17 -2 29 -3 35 -4 40 -16 17 -35 l-21 -17
21 -27 c22 -28 42 -35 48 -17 2 7 15 7 38 0 28 -8 41 -6 72 10 49 25 52 25 73
-6 13 -20 14 -28 4 -40 -9 -11 -8 -19 5 -39 20 -30 36 -32 36 -5 0 24 5 24 61
4 24 -8 59 -13 77 -10 26 4 32 1 32 -13 0 -9 -5 -22 -12 -29 -6 -6 -9 -14 -6
-18 10 -9 48 15 48 31 0 7 18 34 39 59 22 25 48 59 58 76 9 16 23 30 30 30 33
0 23 50 -35 178 -12 26 -12 35 -2 47 7 9 10 18 7 21 -6 7 -114 14 -184 14 -24
-1 -43 4 -43 10 0 5 3 10 8 10 9 0 33 52 27 58 -3 3 -23 -9 -46 -27 -45 -37
-60 -33 -63 17 -1 20 -16 45 -44 76 -23 25 -42 52 -42 61 0 8 -4 23 -9 33 -50
91 -139 316 -175 442 -23 77 -85 283 -101 330 -8 25 -17 61 -20 80 -6 32 -3
36 27 52 18 9 50 19 72 23 21 3 46 10 55 15 37 19 153 41 205 39 30 -1 59 1
63 5 7 7 191 3 298 -6z m-4604 -335 c47 -39 139 -138 139 -150 0 -6 6 -13 14
-16 29 -11 170 -217 150 -217 -4 0 3 -11 16 -25 29 -31 90 -170 90 -205 0 -15
7 -33 15 -40 8 -7 15 -20 15 -30 0 -10 7 -37 16 -61 8 -24 17 -73 18 -109 2
-36 7 -73 11 -82 11 -28 -2 -48 -32 -48 -27 0 -154 14 -403 46 -180 22 -422
47 -450 46 -32 -2 -172 28 -184 40 -6 4 -18 8 -28 8 -10 0 -23 9 -30 20 -7 11
-22 20 -34 20 -12 0 -25 10 -32 25 -12 25 -45 34 -57 15 -4 -6 -10 -8 -15 -5
-11 7 16 63 50 100 15 17 35 42 46 56 10 14 38 51 62 82 23 31 42 59 42 62 0
4 11 19 25 33 14 15 51 64 83 109 62 90 167 228 213 283 l29 34 11 -31 c20
-59 56 -48 111 33 29 42 63 44 109 7z m4185 -900 c29 -32 54 -63 54 -70 0 -6
-15 -24 -34 -40 -22 -19 -36 -40 -40 -65 -8 -46 -21 -55 -46 -33 -21 19 -18
32 17 84 17 25 23 48 23 87 0 50 -2 54 -24 54 -53 0 -79 -32 -35 -43 12 -3 18
-10 14 -16 -11 -18 -28 -12 -69 22 -29 25 -38 38 -33 51 6 15 15 17 51 12 27
-4 47 -3 51 4 10 16 14 13 71 -47z m-4922 -68 c5 -19 20 -32 53 -46 45 -19 45
-20 28 -39 -23 -26 -38 -25 -69 3 -17 14 -28 37 -32 65 -7 46 9 60 20 17z
m342 -41 c39 -30 54 -30 51 -1 -2 26 2 26 133 9 47 -6 155 -18 240 -27 85 -9
207 -23 270 -31 63 -8 129 -14 147 -14 40 0 58 -28 48 -74 -4 -17 -9 -51 -10
-74 -5 -75 11 -74 -280 -17 -38 8 -104 21 -145 29 -41 8 -102 20 -135 26 -57
12 -136 46 -143 63 -2 4 -11 7 -19 7 -13 0 -13 -3 -3 -15 7 -9 11 -17 9 -20
-6 -5 -164 22 -206 36 -37 12 -39 21 -18 62 13 25 12 29 -1 34 -8 3 -23 3 -34
0 -23 -6 -34 7 -26 29 9 22 81 9 122 -22z m-151 -44 c7 -11 -39 -25 -55 -15
-5 3 -8 11 -5 16 8 12 52 12 60 -1z m4621 -80 c8 0 14 -7 14 -15 0 -8 -7 -15
-15 -15 -8 0 -15 4 -15 9 0 5 -2 15 -3 23 -2 7 -2 10 0 6 3 -5 11 -8 19 -8z
m-3117 -70 l52 -59 -28 -53 c-30 -57 -60 -71 -103 -48 -20 11 -21 16 -15 98 7
85 17 122 34 122 4 0 31 -27 60 -60z m-1684 19 c-4 -5 -10 -9 -15 -9 -5 0 -21
-11 -36 -25 -15 -14 -30 -23 -33 -19 -9 8 69 75 80 68 5 -3 7 -10 4 -15z
m2152 -45 c7 -19 -30 -59 -46 -50 -6 4 -11 20 -11 37 0 24 4 29 25 29 14 0 28
-7 32 -16z m-1552 -43 c33 -6 81 -16 107 -22 26 -6 71 -14 100 -19 160 -25
200 -35 278 -64 55 -21 84 -37 83 -47 -5 -47 -22 -112 -32 -122 -8 -8 -22 -8
-54 2 -23 6 -58 16 -77 20 -19 5 -48 16 -65 24 -30 16 -157 53 -227 67 -21 4
-43 12 -50 17 -7 6 -26 13 -43 17 -16 4 -54 16 -83 28 -43 17 -56 28 -72 61
-11 23 -20 45 -20 50 0 10 69 5 155 -12z m1255 -117 c0 -8 -9 -14 -20 -14 -22
0 -28 26 -7 33 16 6 27 -1 27 -19z m498 3 c18 -21 25 -92 13 -116 -14 -25 -57
-28 -87 -7 -19 14 -19 15 0 50 11 20 19 44 19 54 0 30 36 43 55 19z m-807
-118 c21 -21 19 -56 -5 -71 -13 -9 -80 -11 -88 -2 -3 3 -1 20 5 37 5 18 11 38
13 45 5 19 52 14 75 -9z m386 -31 c-2 -7 -11 -13 -20 -13 -9 0 -25 -10 -37
-23 -21 -23 -37 -27 -64 -16 -27 10 -19 34 12 34 15 0 38 7 52 14 32 18 63 20
57 4z m418 -69 c14 -43 -29 -53 -58 -13 -10 14 -16 31 -13 39 7 20 63 0 71
-26z m-344 -9 c49 -14 67 -37 81 -104 13 -67 7 -76 -55 -76 -71 0 -177 71
-177 119 0 22 8 31 43 49 48 25 58 26 108 12z m177 -133 c3 -23 0 -28 -15 -25
-11 2 -19 14 -21 31 -3 23 0 28 15 25 11 -2 19 -14 21 -31z"/>
<path d="M1740 2340 c0 -11 6 -20 14 -20 21 0 31 21 15 31 -22 14 -29 11 -29
-11z"/>
<path d="M1500 2184 c0 -9 5 -14 12 -12 18 6 21 28 4 28 -9 0 -16 -7 -16 -16z"/>
<path d="M6481 2973 c-1 -12 -3 -27 -6 -35 -5 -14 11 -46 19 -37 3 3 2 25 -3
50 -5 24 -9 34 -10 22z"/>
<path d="M6513 2800 c0 -41 2 -58 4 -37 2 20 2 54 0 75 -2 20 -4 3 -4 -38z"/>
<path d="M6537 2633 c-3 -5 -3 -30 2 -54 7 -41 8 -42 15 -17 9 29 -6 89 -17
71z"/>
<path d="M6573 2410 c0 -25 2 -35 4 -22 2 12 2 32 0 45 -2 12 -4 2 -4 -23z"/>
<path d="M7040 2340 c0 -5 6 -10 14 -10 8 0 16 -5 18 -11 2 -6 13 -9 23 -6 19
5 19 5 -2 12 -13 4 -23 11 -23 16 0 5 -7 9 -15 9 -8 0 -15 -4 -15 -10z"/>
<path d="M7316 2323 c-11 -11 -6 -23 9 -23 8 0 15 4 15 9 0 13 -16 22 -24 14z"/>
<path d="M2430 2020 c0 -5 11 -12 25 -16 14 -3 25 -10 25 -15 0 -5 6 -9 13 -9
6 0 -1 12 -16 25 -29 26 -47 32 -47 15z"/>
</g>
</svg>
